<svg width="477" height="357" viewBox="0 0 477 357" fill="none" xmlns="http://www.w3.org/2000/svg">
<path d="M399 212.486C398.932 248.507 385.931 283.199 362.554 309.741C339.176 336.284 307.113 352.756 272.668 355.921C238.222 359.085 203.886 348.713 176.41 326.842C148.934 304.972 130.305 273.186 124.186 237.733C118.067 202.281 124.9 165.726 143.343 135.255C161.785 104.785 190.502 82.603 223.849 73.0705C257.195 63.5381 292.758 67.3447 323.547 83.7419C354.336 100.139 378.123 127.941 390.231 161.681C390.533 162.529 390.828 163.376 391.114 164.231V164.239C392.392 168 393.518 171.83 394.492 175.73C397.495 187.731 399.01 200.084 399 212.486Z" fill="#3F3D56"/>
<path d="M244 114.404C237.708 110.884 230.723 108.896 223.576 108.594C216.429 108.291 209.31 109.682 202.761 112.659C196.995 115.255 190.924 119.913 189 128.325C196.779 123.574 206.85 131.08 208.852 143.121L208.384 143.255C207.327 151.595 209.687 160.675 214.257 165.847C214.597 163.513 215.435 161.288 216.71 159.331C217.985 157.374 219.665 155.736 221.628 154.535C224.985 152.252 228.7 150.593 231.262 146.667C234.3 142.013 235.072 135.212 236.279 129.007C237.486 122.802 239.775 116.133 244 114.404Z" fill="#2369C4"/>
<path d="M200.753 185.874C198.606 189.23 195.738 191.335 193.164 193.956C190.193 196.768 188.244 200.559 187.645 204.692C187.319 207.611 187.823 210.579 187.753 213.532C187.683 216.484 186.738 219.807 184.807 220.541C181.761 221.686 179.435 215.798 176.303 215.387C173.815 215.064 171.575 219.137 172.295 222.67C173.016 226.203 176.404 227.767 178.35 225.461C180.11 228.533 178.869 234.107 176.226 235.051C175.947 236.986 175.668 238.914 175.396 240.85C168.714 235.986 161.962 231.042 156.28 223.92C149.96 216.066 146.04 206.427 145.024 196.239C144.287 188.052 145.38 178.688 141.768 172.389C138.876 167.348 133.915 166.235 129.45 166.549C128.636 166.606 127.814 166.702 127 166.807C129.633 158.578 132.978 150.615 136.992 143.014C137.901 142.608 138.745 142.061 139.496 141.392C143.651 137.723 145.496 130.294 148.868 125.156C149.086 124.826 149.31 124.503 149.543 124.188C152.993 119.502 157.613 117.091 162.078 114.848C171.962 109.856 182.133 104.799 192.567 105.492L189.598 105.791C186.133 115.889 182.665 125.987 179.195 136.085C178.667 137.634 178.135 139.185 177.598 140.739C175.629 146.482 173.598 152.596 173.9 159.024C174.078 162.831 175.35 166.896 177.768 168.203C180.024 169.412 182.489 167.928 184.668 166.46C185.59 165.847 186.505 165.234 187.427 164.613C190.737 162.395 194.404 160.121 197.9 161.605C201.102 162.96 203.466 167.485 203.916 172.364C204.328 177.108 203.216 181.86 200.753 185.874Z" fill="#2369C4"/>
<path d="M220.759 254.758C211.04 248.533 201.321 242.308 191.601 236.083L191.766 235.641C185.723 238.035 183.214 249.209 184.213 258.347C185.212 267.484 188.598 275.653 190.309 284.556C192.616 296.74 191.745 309.345 187.787 321.061C200.568 306.144 211.878 289.932 221.549 272.668C222.9 270.492 223.93 268.118 224.603 265.624C225.316 262.967 225.062 260.129 223.889 257.654C223.093 256.433 222.018 255.438 220.759 254.758Z" fill="#2369C4"/>
<path d="M182.023 142.228C180.861 144.686 180.682 147.484 181.521 150.066C182.498 152.146 184.269 153.762 186.449 154.562L191.917 157.232C193.736 158.12 195.696 159.017 197.551 158.286C199.787 157.405 201.338 153.951 200.937 150.745C200.51 147.332 198.326 144.985 196.307 142.987C193.481 140.19 190.655 137.393 187.83 134.596L186.237 136.517C184.514 138.172 183.09 140.103 182.023 142.228Z" fill="#2369C4"/>
<path d="M370.138 179.733C372.542 180.326 374.945 180.918 377.348 181.511C376.929 190.01 372.906 197.876 367.51 200.726C365.262 201.911 362.758 202.349 360.898 204.565C359.215 206.579 358.362 209.712 357.579 212.707C356.207 217.935 354.835 223.163 353.463 228.391C351.99 234.025 350.098 240.284 346.269 242.313C342.982 244.058 339.222 241.923 336.695 238.343C334.167 234.764 332.625 229.95 331.128 225.258C331.222 230.372 328.95 235.389 325.733 237.166C322.508 238.944 318.585 237.337 316.43 233.367C314.88 230.518 314.236 226.759 312.717 223.869C311.197 220.98 308.011 219.324 306.352 222.035C305.259 223.837 305.398 226.597 304.856 228.886C304.583 230.406 303.864 231.799 302.8 232.871C301.735 233.944 300.378 234.642 298.918 234.869C297.574 234.837 296.251 234.519 295.029 233.934C293.807 233.349 292.711 232.51 291.809 231.468C287.061 226.383 283.971 219.856 282.979 212.821C282.306 209.448 282.391 205.958 283.227 202.625C284.18 199.468 286.483 197.032 288.77 197.633C290.274 194.304 287.305 189.888 284.63 190.278C281.948 190.668 279.847 193.679 277.645 195.993C275.451 198.307 272.381 199.987 270.172 197.69C270.221 198.53 269.95 199.356 269.417 199.987C268.885 200.618 268.135 201.001 267.332 201.053C267.253 201.058 267.173 201.06 267.094 201.059C265.625 200.617 264.26 199.859 263.086 198.834C258.024 195.53 251.597 197.722 248 203.973C250.248 193.955 253.543 182.461 260.45 180.106C263.272 179.14 266.35 179.936 269.017 178.264C273.738 175.301 274.691 164.106 270.614 159.487C271.133 163.855 271.032 168.953 268.831 171.94C266.629 174.927 262.008 172.979 262.288 168.563C262.225 169.184 261.976 169.768 261.577 170.232C261.178 170.696 260.648 171.016 260.065 171.146C259.482 171.276 258.874 171.209 258.329 170.955C257.784 170.701 257.33 170.273 257.032 169.732C255.566 167.394 255.691 163.571 256.729 160.778C257.8 158.249 259.336 155.965 261.249 154.057C264.931 149.925 268.668 145.744 272.932 143.146C277.203 140.549 282.134 139.672 286.413 142.253C288.669 143.617 290.654 145.89 292.956 147.091C293.497 147.443 294.099 147.679 294.727 147.787C295.356 147.895 295.998 147.873 296.618 147.721C297.238 147.569 297.823 147.29 298.341 146.901C298.858 146.513 299.297 146.021 299.632 145.454L299.633 145.454C299.658 145.41 299.684 145.366 299.708 145.322C301.422 142.172 300.615 137.496 301.251 133.559C302.391 126.602 309.034 123.347 312.717 127.942C309.965 127.203 307.12 130.612 306.779 134.744C306.43 138.876 308.422 143.049 311.089 144.299C315.57 146.377 319.958 141.149 323.345 136.311C326.88 131.245 330.421 126.183 333.966 121.123C334.532 120.261 335.168 119.452 335.865 118.704C336.976 117.57 338.456 116.921 340.006 116.888C341.557 116.855 343.061 117.44 344.215 118.525C347.796 121.585 349.478 127.86 352.417 132.179C356.68 138.454 363.061 139.98 368.999 141.198C373.425 142.099 377.854 143.006 382.286 143.917C385.241 149.672 387.818 155.631 390 161.752C381.873 165.633 374.98 171.873 370.138 179.733Z" fill="#2369C4"/>
<path d="M385 277.121C381.676 284.127 377.81 290.842 373.439 297.199C370.646 295.959 367.643 298.174 365.029 300.252C362.297 302.426 359.015 304.544 356.214 302.563C353.351 300.533 352.428 294.856 353.336 290.353C354.379 286.2 356.204 282.302 358.705 278.885C361.033 275.277 363.523 271.532 366.759 270.13C370.002 268.729 374.169 270.71 375.115 275.494L377.412 275.413C376.124 273.577 376.799 269.776 378.529 269.107C380.523 268.326 382.253 271.169 383.433 273.682C383.96 274.817 384.496 275.961 385 277.121Z" fill="#2369C4"/>
<path d="M296.277 242.556C291.338 242.878 287.425 236.579 284.826 230.382C282.226 224.184 279.854 217.098 275.398 213.943C272.851 212.141 269.948 211.894 267.186 211.02C265.62 210.61 264.17 209.819 262.957 208.713C261.745 207.607 260.804 206.217 260.213 204.659L257.08 203.348C252.697 205.618 248.684 208.583 245.185 212.135C241.186 216.536 238.695 222.177 238.097 228.19C237.498 234.687 239.708 241.931 243.838 244.372C247.101 246.301 250.9 245.085 254.205 246.85C258.334 249.056 260.786 255.464 261.714 261.791C262.642 268.117 262.406 274.692 263.07 281.091C263.734 287.489 265.564 294.147 269.351 297.426C274.09 301.529 281.044 298.12 283.17 290.65C284.213 286.987 284.177 282.852 284.957 279.049C286.331 272.351 290.037 267.382 292.977 261.888C295.917 256.394 298.232 248.932 296.277 242.556Z" fill="#2369C4"/>
<path d="M247.73 176.54C248.181 176.963 248.602 177.417 248.99 177.9C249.391 178.604 249.596 179.405 249.582 180.218C249.568 181.031 249.337 181.825 248.912 182.514C249.495 182.48 250.065 182.324 250.585 182.055C251.105 181.786 251.565 181.41 251.935 180.952C252.819 179.929 253.595 178.817 254.253 177.632C254.563 177.226 254.784 176.758 254.902 176.259C255.02 175.759 255.032 175.24 254.937 174.736C254.708 174.073 254.168 173.79 253.789 173.291C253.264 172.316 252.905 171.257 252.729 170.16C252.519 169.131 252.031 168.183 251.32 167.421C250.608 166.659 249.702 166.114 248.703 165.847L248.946 165.894C248.533 166.143 248.207 166.517 248.014 166.964C247.821 167.41 247.77 167.907 247.869 168.385C248.015 169.349 248.625 170.15 248.565 171.135C248.477 172.55 247.086 173.213 247 174.629C246.987 175.339 247.249 176.025 247.73 176.54Z" fill="#2369C4"/>
<path d="M240.576 158.193C241.152 157.657 241.578 156.962 241.808 156.186C242.038 155.41 242.062 154.581 241.878 153.792C241.53 152.126 240.296 151.006 239.158 151.314C238.828 151.669 238.419 151.929 237.968 152.07C237.517 152.211 237.04 152.228 236.581 152.119C235.878 151.927 235.106 151.432 234.495 151.995C234.146 152.415 233.902 152.921 233.785 153.467C233.559 154.203 233.333 154.939 233.108 155.674C233 155.937 232.972 156.23 233.028 156.51C233.071 156.623 233.141 156.722 233.23 156.797C233.32 156.873 233.426 156.923 233.539 156.942L237.604 158.214C238.07 158.442 238.578 158.559 239.092 158.555C239.606 158.551 240.112 158.428 240.576 158.193Z" fill="#2369C4"/>
<path d="M345.99 254.154C345.321 253.074 344.652 251.994 343.982 250.914C343.325 249.663 342.427 248.55 341.337 247.639C340.86 247.245 340.245 247.055 339.626 247.109C339.006 247.162 338.434 247.457 338.035 247.926L338.035 247.927L338 247.969L338.081 248.585C339.873 250.479 341.094 252.828 341.607 255.368C341.76 256.472 341.707 257.614 341.841 258.723C341.855 259.237 341.972 259.743 342.184 260.212C342.397 260.682 342.702 261.105 343.08 261.459C344.134 262.153 345.371 261.13 346.121 259.881C346.792 258.856 347.092 257.637 346.975 256.423C346.808 255.608 346.473 254.836 345.99 254.154Z" fill="#2369C4"/>
<path d="M356.512 255.552C356.641 254.524 356.557 253.482 356.265 252.488C356.216 251.143 356.576 249.814 357.297 248.674C358.014 247.599 358.556 246.419 358.906 245.177C359.054 244.612 359.027 244.015 358.829 243.465C358.605 242.967 358.063 242.739 357.752 243.134L358.418 243.559C357.519 243.4 356.596 243.444 355.717 243.689C355.215 243.879 354.767 244.186 354.411 244.584C354.055 244.982 353.8 245.46 353.67 245.976C353.56 246.781 353.38 247.575 353.133 248.349C352.736 249.158 351.967 249.427 351.484 250.137C351.155 250.766 350.989 251.467 351.001 252.176C351.012 252.885 351.202 253.58 351.552 254.198C352.159 255.209 353.123 255.961 354.257 256.307C355.07 256.596 356.14 256.611 356.512 255.552Z" fill="#2369C4"/>
<path d="M374.029 261.241C374.3 262.04 374.664 262.795 375.11 263.487C375.945 264.439 377.08 263.854 378.093 263.622C379.012 263.458 379.954 263.578 380.818 263.971C381.682 264.363 382.436 265.012 383 265.85C382.607 263.632 381.75 261.553 380.5 259.788C379.25 258.023 377.644 256.623 375.817 255.706C373.443 254.775 370.941 254.333 368.429 254.398L368 254.522C369.093 258.125 372.526 258.044 374.029 261.241Z" fill="#2369C4"/>
<path d="M295.538 273.541C294.983 274.691 294.506 275.888 294.111 277.121C293.588 279.118 293.242 281.17 293.077 283.246C292.948 284.426 292.908 285.934 293.556 286.509C293.742 286.65 293.966 286.709 294.187 286.675C294.408 286.64 294.611 286.515 294.757 286.323C295.117 285.888 295.411 285.388 295.628 284.844C296.901 282.341 297.889 279.662 298.569 276.873C299.278 273.914 299.109 270.771 298.087 267.934C297.238 269.803 296.388 271.672 295.538 273.541Z" fill="#2369C4"/>
<path d="M268.579 127.434C269.035 127.871 269.611 128.167 270.237 128.286C270.863 128.406 271.511 128.344 272.101 128.107C273.323 127.584 274.444 126.86 275.415 125.965C276.219 125.382 276.901 124.654 277.424 123.82C277.712 123.321 277.897 122.771 277.968 122.203C278.038 121.634 277.993 121.057 277.835 120.505C277.611 119.977 277.252 119.513 276.794 119.158C276.335 118.803 275.791 118.568 275.214 118.476C273.587 118.004 271.961 117.531 270.334 117.059L271.511 116.022C270.3 115.386 268.961 116.566 268.204 118.027C267.719 118.981 267.381 120 267.201 121.051C266.943 122.149 266.933 123.289 267.171 124.391C267.409 125.494 267.89 126.532 268.579 127.434Z" fill="#2369C4"/>
<path d="M296.02 118.013C296.451 118.562 297.047 118.901 297.686 118.961C298.326 119.021 298.961 118.798 299.464 118.336C299.896 117.962 300.255 117.486 300.518 116.94C300.78 116.394 300.94 115.79 300.987 115.168C301.096 113.779 300.501 112.235 299.651 112.115L299.845 110.814C298.208 110.473 296.194 110.404 295.317 112.699C295.021 113.579 294.93 114.532 295.053 115.465C295.177 116.397 295.51 117.276 296.02 118.013Z" fill="#2369C4"/>
<path d="M184 203.348C189.523 203.348 194 196.819 194 188.765C194 180.71 189.523 174.181 184 174.181C178.477 174.181 174 180.71 174 188.765C174 196.819 178.477 203.348 184 203.348Z" fill="#E6E6E6"/>
<path d="M383.053 329.222C387.977 327.856 391.23 323.856 390.317 320.287C389.405 316.719 384.674 314.933 379.749 316.299C374.825 317.665 371.573 321.666 372.485 325.234C373.397 328.803 378.129 330.588 383.053 329.222Z" fill="#E6E6E6"/>
<path d="M400.842 307.001C403.066 306.714 404.547 303.782 404.151 300.452C403.754 297.123 401.631 294.657 399.407 294.944C397.184 295.231 395.703 298.163 396.099 301.492C396.495 304.822 398.619 307.288 400.842 307.001Z" fill="#E6E6E6"/>
<path d="M405.346 267.563C407.569 267.276 409.05 264.344 408.654 261.014C408.258 257.685 406.134 255.219 403.911 255.506C401.687 255.793 400.206 258.725 400.602 262.054C400.999 265.384 403.122 267.85 405.346 267.563Z" fill="#E6E6E6"/>
<path d="M344.547 343.377C346.771 343.09 348.252 340.158 347.856 336.829C347.459 333.499 345.336 331.033 343.112 331.32C340.889 331.608 339.408 334.539 339.804 337.869C340.2 341.198 342.324 343.665 344.547 343.377Z" fill="#E6E6E6"/>
<path d="M375.041 354.875C377.264 354.588 378.745 351.656 378.349 348.327C377.953 344.997 375.829 342.531 373.605 342.818C371.382 343.105 369.901 346.037 370.297 349.366C370.693 352.696 372.817 355.162 375.041 354.875Z" fill="#E6E6E6"/>
<path d="M72.5354 328.733C77.4597 327.367 80.712 323.366 79.7997 319.798C78.8874 316.229 74.156 314.444 69.2317 315.81C64.3073 317.176 61.055 321.177 61.9673 324.745C62.8796 328.313 67.6111 330.099 72.5354 328.733Z" fill="#E6E6E6"/>
<path d="M12.2199 329.897C17.1442 328.531 20.3967 324.53 19.4844 320.962C18.5721 317.393 13.8405 315.608 8.91622 316.974C3.99192 318.34 0.739563 322.341 1.65186 325.909C2.56415 329.477 7.29563 331.263 12.2199 329.897Z" fill="#E6E6E6"/>
<path d="M83.2522 276.457C88.1765 275.091 91.4289 271.09 90.5166 267.522C89.6043 263.953 84.8728 262.168 79.9485 263.534C75.0241 264.9 71.7718 268.901 72.6841 272.469C73.5964 276.038 78.3279 277.823 83.2522 276.457Z" fill="#E6E6E6"/>
<path d="M101.04 254.238C103.263 253.951 104.745 251.019 104.348 247.689C103.952 244.36 101.828 241.894 99.6049 242.181C97.3815 242.468 95.9003 245.4 96.2966 248.729C96.6929 252.059 98.8165 254.525 101.04 254.238Z" fill="#E6E6E6"/>
<path d="M105.543 214.8C107.766 214.513 109.248 211.581 108.851 208.251C108.455 204.922 106.331 202.456 104.108 202.743C101.884 203.03 100.403 205.962 100.8 209.291C101.196 212.621 103.319 215.087 105.543 214.8Z" fill="#E6E6E6"/>
<path d="M44.7441 290.614C46.9675 290.327 48.4488 287.395 48.0525 284.066C47.6562 280.736 45.5325 278.27 43.3091 278.557C41.0857 278.844 39.6044 281.776 40.0007 285.106C40.397 288.435 42.5207 290.901 44.7441 290.614Z" fill="#E6E6E6"/>
<path d="M75.2383 302.112C77.4617 301.825 78.9429 298.893 78.5466 295.563C78.1503 292.234 76.0267 289.768 73.8032 290.055C71.5798 290.342 70.0986 293.274 70.4949 296.603C70.8911 299.933 73.0149 302.399 75.2383 302.112Z" fill="#E6E6E6"/>
<path d="M38.2133 334.677C40.4367 334.39 41.918 331.458 41.5217 328.129C41.1254 324.799 39.0017 322.333 36.7783 322.62C34.5548 322.907 33.0737 325.839 33.47 329.169C33.8662 332.498 35.9899 334.964 38.2133 334.677Z" fill="#E6E6E6"/>
<path d="M438.978 87.1409C443.902 85.7748 447.154 81.7745 446.242 78.206C445.33 74.6375 440.598 72.8522 435.674 74.2183C430.75 75.5844 427.497 79.5847 428.41 83.1532C429.322 86.7216 434.053 88.507 438.978 87.1409Z" fill="#E6E6E6"/>
<path d="M378.662 88.3049C383.587 86.9388 386.839 82.9385 385.927 79.37C385.014 75.8016 380.283 74.0162 375.359 75.3824C370.434 76.7485 367.182 80.7487 368.094 84.3172C369.007 87.8857 373.738 89.671 378.662 88.3049Z" fill="#E6E6E6"/>
<path d="M449.695 34.8638C454.619 33.4976 457.871 29.4973 456.959 25.9289C456.047 22.3604 451.315 20.575 446.391 21.9412C441.467 23.3073 438.214 27.3076 439.126 30.8761C440.039 34.4446 444.77 36.2299 449.695 34.8638Z" fill="#E6E6E6"/>
<path d="M467.482 12.6457C469.706 12.3586 471.187 9.42671 470.791 6.09726C470.394 2.7678 468.271 0.301524 466.047 0.58869C463.824 0.875855 462.343 3.80771 462.739 7.13717C463.135 10.4666 465.259 12.9329 467.482 12.6457Z" fill="#E6E6E6"/>
<path d="M411.187 49.0219C413.41 48.7348 414.892 45.8029 414.495 42.4735C414.099 39.144 411.975 36.6777 409.752 36.9649C407.528 37.2521 406.047 40.1839 406.444 43.5134C406.84 46.8428 408.963 49.3091 411.187 49.0219Z" fill="#E6E6E6"/>
<path d="M441.681 60.52C443.904 60.2328 445.386 57.301 444.989 53.9715C444.593 50.642 442.469 48.1758 440.246 48.463C438.023 48.7501 436.541 51.682 436.938 55.0114C437.334 58.3409 439.458 60.8071 441.681 60.52Z" fill="#E6E6E6"/>
<path d="M404.656 93.0854C406.879 92.7982 408.36 89.8664 407.964 86.5369C407.568 83.2075 405.444 80.7412 403.221 81.0284C400.997 81.3155 399.516 84.2474 399.912 87.5768C400.309 90.9063 402.432 93.3726 404.656 93.0854Z" fill="#E6E6E6"/>
<path d="M54.6815 337.728C44.8197 337.728 38.4084 335.174 35.5708 330.098C29.9749 320.087 39.3469 302.521 63.4261 277.889L65.4489 280.036C43.0818 302.918 33.3568 320.158 38.0654 328.583C41.0449 333.912 49.9122 335.822 63.7142 334.104C77.4156 332.399 95.5732 327.319 117.683 319.003C163.2 301.884 220.306 273.008 278.481 237.693C336.654 202.379 388.927 164.856 425.672 132.038C432.729 125.733 439.134 119.668 444.709 114.012C452.027 106.769 458.778 98.9276 464.898 90.5639C473.14 78.9016 475.921 69.9203 472.942 64.5907C467.966 55.6893 447.063 56.5263 414.08 66.9509L413.243 64.0711C448.63 52.8884 469.555 52.5529 475.437 63.0764C479.092 69.6148 476.328 79.4634 467.223 92.3486C461.01 100.845 454.155 108.81 446.723 116.168C441.105 121.869 434.655 127.977 427.551 134.323C390.678 167.256 338.254 204.891 279.934 240.293C221.613 275.697 164.339 304.655 118.663 321.834C96.3478 330.227 77.9753 335.361 64.0564 337.091C60.9462 337.496 57.8158 337.708 54.6815 337.728Z" fill="#3F3D56"/>
</svg>
