<svg width="522" height="379" viewBox="0 0 522 379" fill="none" xmlns="http://www.w3.org/2000/svg">
<g clip-path="url(#clip0_100_318)">
<path d="M241.885 281.714H2.7791C2.04234 281.713 1.33602 281.421 0.815044 280.9C0.294071 280.379 0.000961047 279.673 0 278.937V57.0351C0.000966572 56.2988 0.294082 55.5929 0.815055 55.0723C1.33603 54.5517 2.04234 54.2588 2.7791 54.2578H241.885C242.621 54.2588 243.328 54.5517 243.849 55.0723C244.37 55.5929 244.663 56.2988 244.664 57.0351V278.937C244.663 279.673 244.37 280.379 243.849 280.9C243.328 281.42 242.621 281.713 241.885 281.714V281.714Z" fill="#F1F1F1"/>
<path d="M279.576 314.898H40.4705C39.7337 314.897 39.0274 314.604 38.5065 314.083C37.9855 313.563 37.6924 312.857 37.6914 312.121V90.2184C37.6924 89.4821 37.9855 88.7763 38.5065 88.2557C39.0274 87.735 39.7337 87.4421 40.4705 87.4412H279.576C280.313 87.4421 281.019 87.735 281.54 88.2557C282.061 88.7763 282.354 89.4821 282.355 90.2184V312.12C282.354 312.856 282.061 313.562 281.54 314.083C281.019 314.604 280.313 314.897 279.576 314.897V314.898Z" fill="white"/>
<path d="M279.576 314.898H40.4705C39.7337 314.897 39.0274 314.604 38.5065 314.083C37.9855 313.563 37.6924 312.857 37.6914 312.121V90.2184C37.6924 89.4821 37.9855 88.7763 38.5065 88.2557C39.0274 87.735 39.7337 87.4421 40.4705 87.4412H279.576C280.313 87.4421 281.019 87.735 281.54 88.2557C282.061 88.7763 282.354 89.4821 282.355 90.2184V312.12C282.354 312.856 282.061 313.562 281.54 314.083C281.019 314.604 280.313 314.897 279.576 314.897V314.898ZM40.4705 88.5499C40.0289 88.5508 39.6057 88.7265 39.2935 89.0386C38.9813 89.3506 38.8055 89.7735 38.8045 90.2148V312.12C38.8055 312.561 38.9813 312.984 39.2935 313.296C39.6057 313.608 40.0289 313.784 40.4705 313.785H279.576C280.018 313.784 280.441 313.608 280.753 313.296C281.065 312.984 281.241 312.561 281.242 312.12V90.2184C281.241 89.7771 281.065 89.3542 280.753 89.0422C280.441 88.7302 280.017 88.5545 279.576 88.5535L40.4705 88.5499Z" fill="#E6E6E6"/>
<path d="M235.063 186.919H84.9837C84.2469 186.918 83.5405 186.625 83.0195 186.104C82.4985 185.584 82.2054 184.878 82.2046 184.141V118.323C82.2054 117.586 82.4985 116.88 83.0195 116.36C83.5405 115.839 84.2469 115.546 84.9837 115.545H235.063C235.8 115.546 236.506 115.839 237.027 116.36C237.548 116.88 237.841 117.586 237.842 118.323V184.141C237.841 184.878 237.548 185.584 237.027 186.104C236.506 186.625 235.8 186.918 235.063 186.919Z" fill="#2369C4"/>
<path d="M108.259 143.689C107.759 143.69 107.28 143.889 106.927 144.243C106.574 144.596 106.375 145.075 106.375 145.575C106.375 146.074 106.574 146.553 106.927 146.907C107.28 147.26 107.759 147.459 108.259 147.46H211.788C212.288 147.459 212.767 147.26 213.12 146.907C213.473 146.553 213.671 146.074 213.671 145.575C213.671 145.075 213.473 144.596 213.12 144.243C212.767 143.889 212.288 143.69 211.788 143.689H108.259Z" fill="white"/>
<path d="M108.259 155.003C107.759 155.004 107.28 155.203 106.927 155.557C106.574 155.91 106.375 156.389 106.375 156.889C106.375 157.388 106.574 157.867 106.927 158.221C107.28 158.574 107.759 158.773 108.259 158.774H161.112C161.612 158.773 162.091 158.574 162.444 158.221C162.797 157.867 162.995 157.388 162.995 156.889C162.995 156.389 162.797 155.91 162.444 155.557C162.091 155.203 161.612 155.004 161.112 155.003H108.259Z" fill="white"/>
<path d="M62.9642 211.178C62.4644 211.179 61.9854 211.378 61.6324 211.732C61.2793 212.085 61.0811 212.564 61.0811 213.064C61.0811 213.563 61.2793 214.042 61.6324 214.396C61.9854 214.749 62.4644 214.948 62.9642 214.949H257.082C257.582 214.948 258.061 214.749 258.414 214.396C258.767 214.042 258.965 213.563 258.965 213.064C258.965 212.564 258.767 212.085 258.414 211.732C258.061 211.378 257.582 211.179 257.082 211.178H62.9642Z" fill="#E6E6E6"/>
<path d="M62.9642 222.492C62.4644 222.493 61.9854 222.692 61.6324 223.046C61.2793 223.399 61.0811 223.878 61.0811 224.378C61.0811 224.877 61.2793 225.356 61.6324 225.71C61.9854 226.063 62.4644 226.262 62.9642 226.263H206.406C206.906 226.262 207.385 226.063 207.738 225.71C208.091 225.356 208.29 224.877 208.29 224.378C208.29 223.878 208.091 223.399 207.738 223.046C207.385 222.692 206.906 222.493 206.406 222.492H62.9642Z" fill="#E6E6E6"/>
<path d="M62.9642 233.55C62.4644 233.551 61.9854 233.75 61.6324 234.104C61.2793 234.457 61.0811 234.936 61.0811 235.436C61.0811 235.935 61.2793 236.414 61.6324 236.768C61.9854 237.121 62.4644 237.32 62.9642 237.321H257.082C257.582 237.32 258.061 237.121 258.414 236.768C258.767 236.414 258.965 235.935 258.965 235.436C258.965 234.936 258.767 234.457 258.414 234.104C258.061 233.75 257.582 233.551 257.082 233.55H62.9642Z" fill="#E6E6E6"/>
<path d="M62.9642 244.864C62.4644 244.865 61.9854 245.064 61.6324 245.418C61.2793 245.771 61.0811 246.25 61.0811 246.75C61.0811 247.249 61.2793 247.728 61.6324 248.081C61.9854 248.435 62.4644 248.634 62.9642 248.635H206.406C206.906 248.634 207.385 248.435 207.738 248.081C208.091 247.728 208.29 247.249 208.29 246.75C208.29 246.25 208.091 245.771 207.738 245.418C207.385 245.064 206.906 244.865 206.406 244.864H62.9642Z" fill="#E6E6E6"/>
<path d="M255.882 288.884H198.994C198.258 288.883 197.551 288.59 197.03 288.069C196.509 287.549 196.216 286.843 196.215 286.106V276.998C196.216 276.262 196.509 275.556 197.03 275.035C197.551 274.514 198.258 274.222 198.994 274.221H255.882C256.619 274.222 257.325 274.514 257.846 275.035C258.367 275.556 258.66 276.262 258.661 276.998V286.106C258.66 286.843 258.367 287.549 257.846 288.069C257.325 288.59 256.619 288.883 255.882 288.884Z" fill="#2369C4"/>
<path d="M378.155 90.6321L282.041 139.763L282.676 141.004L378.79 91.8724L378.155 90.6321Z" fill="#E5E5E5"/>
<path d="M282.672 268.644L282.038 269.884L378.159 319.001L378.794 317.761L282.672 268.644Z" fill="#E5E5E5"/>
<path d="M522 73.1526C521.997 86.6336 518.269 99.852 511.228 111.351C504.186 122.85 494.105 132.183 482.095 138.321C481.474 138.642 480.847 138.955 480.219 139.248C479.85 139.429 479.48 139.596 479.111 139.763C478.204 140.174 477.284 140.571 476.357 140.941C473.059 142.288 469.663 143.385 466.2 144.222C465.711 144.347 465.21 144.459 464.715 144.57C463.467 144.849 462.21 145.091 460.943 145.295C454.03 146.452 446.988 146.616 440.028 145.783C438.585 145.615 437.154 145.402 435.734 145.142C435.058 145.016 434.381 144.884 433.712 144.745C433.621 144.724 433.531 144.703 433.44 144.689C431.038 144.184 428.664 143.551 426.329 142.794C425.074 142.39 423.826 141.958 422.606 141.484C421.972 141.24 421.345 140.989 420.724 140.732C420.417 140.606 420.111 140.474 419.811 140.342C407.678 135.115 397.186 126.704 389.449 116.001C381.712 105.298 377.018 92.7023 375.864 79.5492C374.71 66.3961 377.139 53.1761 382.895 41.2911C388.65 29.4061 397.516 19.299 408.554 12.0419C419.592 4.78469 432.389 0.647865 445.589 0.0700914C458.788 -0.507682 471.898 2.49514 483.529 8.76011C495.159 15.0251 504.876 24.3186 511.649 35.6553C518.422 46.9919 521.999 59.949 522 73.1526Z" fill="#F1F1F1"/>
<path d="M522 305.847C521.983 317.635 519.125 329.244 513.668 339.694C508.211 350.144 500.315 359.126 490.648 365.881C490.467 366.007 490.286 366.132 490.105 366.251C489.045 366.982 487.964 367.686 486.856 368.348C486.152 368.78 485.434 369.198 484.716 369.609C483.851 370.096 482.98 370.563 482.094 371.016C481.892 371.12 481.69 371.225 481.481 371.322C480.742 371.699 479.996 372.061 479.236 372.402C479.194 372.423 479.153 372.437 479.111 372.458C478.86 372.57 478.602 372.688 478.337 372.799C476.699 373.524 475.025 374.193 473.317 374.792C473.199 374.841 473.073 374.883 472.948 374.924C469.037 376.297 465.013 377.323 460.922 377.99C460.148 378.129 459.367 378.241 458.586 378.345C458.461 378.366 458.328 378.387 458.203 378.401C457.136 378.54 456.063 378.652 454.982 378.742C454.857 378.756 454.731 378.763 454.606 378.77C453.797 378.84 452.981 378.889 452.159 378.923C451.043 378.972 449.928 379 448.798 379C447.216 379 445.643 378.951 444.079 378.854C442.719 378.763 441.367 378.645 440.028 378.477C439.212 378.38 438.397 378.268 437.595 378.143C436.71 378.011 435.824 377.857 434.953 377.69C434.521 377.607 434.088 377.516 433.656 377.425C433.586 377.412 433.51 377.398 433.44 377.384C432.743 377.237 432.053 377.084 431.37 376.91C428.66 376.257 425.992 375.442 423.38 374.472C422.488 374.137 421.602 373.789 420.724 373.426C420.452 373.315 420.18 373.197 419.915 373.078C419.434 372.876 418.96 372.66 418.486 372.444C418.13 372.284 417.775 372.117 417.419 371.949C416.667 371.601 415.928 371.232 415.188 370.849C414.596 370.549 414.003 370.229 413.425 369.908C413.411 369.901 413.404 369.894 413.39 369.887C402.091 363.649 392.644 354.536 386.006 343.472C379.368 332.408 375.776 319.786 375.593 306.888C375.411 293.989 378.644 281.271 384.966 270.024C391.288 258.777 400.474 249.4 411.592 242.845C422.709 236.289 435.364 232.788 448.272 232.697C461.181 232.605 473.884 235.926 485.094 242.323C496.304 248.719 505.622 257.964 512.103 269.121C518.585 280.277 521.999 292.947 522 305.847Z" fill="#F1F1F1"/>
<path d="M448.352 60.2568C443.088 60.2631 438.042 62.3556 434.319 66.0753C430.597 69.795 428.503 74.8382 428.497 80.0986V94.9033C428.499 95.6099 428.781 96.287 429.281 96.7859C429.782 97.2849 430.46 97.565 431.167 97.5647H465.537C466.244 97.5651 466.922 97.285 467.423 96.786C467.924 96.287 468.206 95.6099 468.207 94.9033V80.0986C468.2 74.8384 466.106 69.7955 462.384 66.0759C458.662 62.3564 453.616 60.2637 448.352 60.2568Z" fill="#2F2E41"/>
<path d="M438.209 122.548L436.306 113.979C436.039 112.761 435.415 111.65 434.514 110.788C433.713 110.092 432.775 109.572 431.76 109.262C431.642 109.234 431.523 109.206 431.398 109.185C431.345 109.17 431.292 109.159 431.237 109.15C430.383 109.002 429.508 109.032 428.666 109.238C427.824 109.444 427.033 109.822 426.344 110.348C425.656 110.874 425.083 111.537 424.663 112.295C424.243 113.053 423.984 113.889 423.903 114.752L422.286 124.861L419.811 140.341C420.111 140.474 420.418 140.606 420.724 140.732C421.345 140.989 421.972 141.24 422.607 141.484C423.827 141.958 425.074 142.39 426.33 142.794C428.664 143.551 431.038 144.183 433.44 144.689C433.531 144.703 433.622 144.724 433.712 144.744C434.382 144.884 435.058 145.016 435.734 145.142L439.115 126.63L438.209 122.548Z" fill="#2F2E41"/>
<path d="M443.454 97.343C451.493 97.343 458.01 90.8305 458.01 82.797C458.01 74.7634 451.493 68.251 443.454 68.251C435.415 68.251 428.898 74.7634 428.898 82.797C428.898 90.8305 435.415 97.343 443.454 97.343Z" fill="#FFB7B7"/>
<path d="M459.186 131.48L456.077 106.984L455.421 101.794H455.414L455.122 101.787C454.132 101.752 453.17 101.745 452.222 101.78C446.403 101.804 440.696 103.382 435.692 106.35C434.382 107.148 433.133 108.043 431.955 109.025L431.899 109.081L431.76 109.262L426.817 115.616L426.81 115.741L426.329 142.794C428.664 143.551 431.038 144.184 433.44 144.689C433.531 144.703 433.621 144.724 433.712 144.745C434.381 144.884 435.058 145.016 435.734 145.142C437.156 145.4 438.587 145.613 440.028 145.783C446.987 146.616 454.03 146.452 460.943 145.295L459.186 131.48Z" fill="#2369C4"/>
<path d="M464.275 107.144C461.986 104.445 458.877 102.566 455.422 101.793H455.414C454.493 101.586 453.555 101.463 452.612 101.424L452.368 101.417L452.222 101.78L440.509 129.996L438.62 122.457L435.692 106.35L435.671 106.231L435.232 106.489C433.875 107.27 432.592 108.173 431.398 109.185C426.647 113.194 423.476 118.76 422.453 124.889C422.154 126.705 422.045 128.547 422.125 130.386L422.606 141.484C423.826 141.958 425.074 142.39 426.329 142.794C428.664 143.551 431.038 144.183 433.44 144.689C433.531 144.703 433.622 144.724 433.712 144.744C434.381 144.884 435.058 145.016 435.734 145.142C437.156 145.399 438.588 145.613 440.028 145.782C446.988 146.616 454.03 146.452 460.943 145.295C462.212 145.093 463.469 144.851 464.715 144.57C465.21 144.459 465.711 144.347 466.2 144.222L465.147 141.122L467.935 119.601C468.221 117.384 468.043 115.133 467.413 112.989C466.783 110.845 465.714 108.854 464.275 107.144Z" fill="#2F2E41"/>
<path d="M467.733 107.743C467.235 106.21 466.164 104.927 464.743 104.163C463.323 103.399 461.662 103.211 460.106 103.64C459.855 103.704 459.608 103.786 459.368 103.884C458.211 104.355 457.222 105.16 456.526 106.196C455.831 107.233 455.461 108.453 455.463 109.701L455.491 122.722L459.186 131.48L464.715 144.57C465.21 144.459 465.711 144.348 466.2 144.222C469.663 143.385 473.059 142.288 476.357 140.941C477.284 140.571 478.204 140.174 479.111 139.763C479.48 139.596 479.85 139.429 480.219 139.248L467.733 107.743Z" fill="#2F2E41"/>
<path d="M442.475 65.5864H439.506C435.341 65.5878 431.347 67.2422 428.403 70.1858C425.459 73.1293 423.805 77.121 423.806 81.2829V81.5755H444.825L445.041 78.5588L446.115 81.5755H449.35L449.782 75.5979L451.915 81.5755H458.175V81.2829C458.172 77.1223 456.516 73.1331 453.573 70.1905C450.63 67.2478 446.639 65.5921 442.475 65.5864Z" fill="#2F2E41"/>
<path d="M436.097 332.935C433.645 332.759 431.182 333.075 428.854 333.864C426.526 334.653 424.38 335.899 422.54 337.529C420.701 339.159 419.206 341.139 418.144 343.355C417.081 345.57 416.472 347.975 416.353 350.429L415.189 370.849C415.928 371.232 416.667 371.601 417.42 371.949C417.775 372.117 418.131 372.284 418.486 372.444C418.96 372.66 419.435 372.876 419.916 373.078C420.18 373.197 420.452 373.315 420.724 373.426C421.603 373.789 422.488 374.137 423.381 374.471C425.993 375.442 428.661 376.257 431.37 376.91C432.053 377.084 432.743 377.237 433.44 377.384C433.51 377.398 433.587 377.412 433.656 377.425C434.089 377.516 434.521 377.607 434.953 377.69L436.431 332.956L436.097 332.935Z" fill="#2F2E41"/>
<path d="M454.983 378.742C456.063 378.652 457.137 378.54 458.203 378.401C458.329 378.387 458.461 378.366 458.587 378.345C459.368 378.241 460.148 378.129 460.922 377.99C460.985 376.102 460.964 374.743 460.964 374.576L464.429 338.494L457.206 334.286L455.798 333.464L433.963 332.76L433.782 332.914L423.297 341.999L419.916 373.078C420.18 373.196 420.452 373.315 420.724 373.426C421.603 373.789 422.488 374.137 423.38 374.471C425.993 375.442 428.661 376.256 431.37 376.91C432.053 377.084 432.743 377.237 433.44 377.384C433.51 377.398 433.587 377.411 433.656 377.425C434.089 377.516 434.521 377.607 434.953 377.69C435.825 377.857 436.71 378.011 437.595 378.143C438.397 378.268 439.213 378.38 440.028 378.477C441.367 378.645 442.72 378.763 444.079 378.854C445.641 378.951 447.214 379 448.799 379C449.928 379 451.044 378.972 452.159 378.923C452.982 378.888 453.797 378.84 454.606 378.77L454.983 378.742Z" fill="#2F2E41"/>
<path d="M469.588 341.602L457.22 334.05L457.206 334.286L454.982 378.742C456.063 378.652 457.137 378.54 458.203 378.401C458.329 378.387 458.461 378.366 458.587 378.345C459.368 378.241 460.148 378.129 460.922 377.99C465.013 377.323 469.037 376.297 472.948 374.924C473.073 374.883 473.199 374.841 473.317 374.792L474.196 349.864C474.257 348.198 473.859 346.546 473.047 345.09C472.235 343.633 471.038 342.427 469.588 341.602Z" fill="#2F2E41"/>
<path d="M442.442 327.949C450.916 327.949 457.785 321.084 457.785 312.616C457.785 304.148 450.916 297.283 442.442 297.283C433.968 297.283 427.099 304.148 427.099 312.616C427.099 321.084 433.968 327.949 442.442 327.949Z" fill="#9F616A"/>
<path d="M436.894 289.976C452.347 285.523 456.733 298.322 456.733 298.322C464.181 303.26 459.518 309.451 459.518 309.451C461.397 309.868 457.639 320.859 456.386 320.581C455.718 320.433 453.999 322.484 452.54 324.428C452.04 324.428 451.542 324.476 451.051 324.572L453.88 314.112C453.88 314.112 444.344 312.652 441.42 308.061C438.623 303.669 429.414 302.283 426.794 305.216C426.639 304.373 426.321 303.567 425.859 302.845C425.501 302.296 425.033 301.827 424.485 301.468C426.802 291.628 436.894 289.976 436.894 289.976Z" fill="#2F2E41"/>
<path opacity="0.2" d="M454.606 378.77C453.797 378.84 452.981 378.888 452.159 378.923L454.306 367.135V367.95L454.606 378.77Z" fill="black"/>
</g>
<defs>
<clipPath id="clip0_100_318">
<rect width="522" height="379" fill="white"/>
</clipPath>
</defs>
</svg>
